<svg width="157" height="22" viewBox="0 0 157 22" fill="none" xmlns="http://www.w3.org/2000/svg"><path d="M42.141 14.211l2.325 2.354c-2.093 2.355-4.654 3.297-7.715 3.297-5.548 0-9.575-3.948-9.575-9.417 0-5.469 4.042-9.403 9.59-9.403 3.06 0 5.622.938 7.715 3.292L42.14 6.68a7.123 7.123 0 00-5.128-2.468c-3.559 0-6.017 2.33-6.017 6.224s2.468 6.23 6.017 6.23c2.083.009 3.835-1.067 5.128-2.454zM46.176.99h3.4v18.83h-3.4V.99zM64.417 14.408H55.68c.237 2.038 1.481 3.11 3.297 3.11a4.368 4.368 0 003.268-1.24l1.935 1.935a7.73 7.73 0 01-5.494 2.093c-3.949 0-6.51-2.562-6.51-6.668 0-4.107 2.927-6.674 6.46-6.674 3.737 0 5.805 2.306 5.805 6.072l-.024 1.372zm-3.505-2.3c0-1.417-.785-2.542-2.408-2.542-1.481 0-2.404.918-2.745 2.542h5.153zM75.231 18.274a4.624 4.624 0 01-4.131 2.039c-2.276 0-3.924-1.48-3.924-3.662 0-2.745 2.379-4.265 7.848-4.265v-.755c0-1.204-.736-2.044-2.276-2.044a4.324 4.324 0 00-3.558 1.832l-1.935-1.935A6.974 6.974 0 0172.93 6.97c3.4 0 5.493 1.481 5.493 5.183v7.897h-3.193v-1.777zM70.656 16.3c0 .785.572 1.387 1.776 1.387 1.624 0 2.592-1.046 2.592-2.665v-.494c-3.559.03-4.368.662-4.368 1.772zM84.572 15.41v4.63h-3.396V7.206h3.396v2.666c.893-2.123 2.59-2.908 4.555-2.908v3.614c-3.613-.005-4.555 1.643-4.555 4.832zM97.977 19.8c-2.463.06-4.87-.745-6.801-2.275l1.831-2.848a8.588 8.588 0 005.099 1.935c2.092 0 3.114-.76 3.114-2.147 0-3.401-9.26-.889-9.26-7.952C91.96 3.058 94.81.97 98.526.97a9.059 9.059 0 016.2 2.167l-1.832 2.779a6.97 6.97 0 00-4.314-1.753c-1.702 0-2.798.81-2.798 2.069 0 3.608 9.23.987 9.23 7.897 0 3.267-2.483 5.671-7.034 5.671zM118.14 9.154l-2.127 2.142a3.686 3.686 0 00-3.036-1.357c-1.934 0-3.297 1.229-3.297 3.687 0 2.458 1.363 3.687 3.297 3.687a3.773 3.773 0 003.036-1.357l2.142 2.142a6.842 6.842 0 01-5.178 2.196c-3.948 0-6.801-2.537-6.801-6.668s2.853-6.673 6.801-6.673a6.85 6.85 0 015.163 2.201zM125.819 6.952c3.87 0 6.619 2.645 6.619 6.673 0 4.027-2.774 6.668-6.619 6.668-3.845 0-6.643-2.64-6.643-6.668 0-4.028 2.749-6.673 6.643-6.673zm0 10.365c2.039 0 3.14-1.437 3.14-3.687 0-2.251-1.101-3.687-3.14-3.687-2.038 0-3.139 1.436-3.139 3.687 0 2.25 1.076 3.682 3.139 3.682v.005zM138.577 15.397v4.63h-3.401V7.192h3.401V9.86c.888-2.123 2.591-2.907 4.55-2.907v3.613c-3.608-.005-4.55 1.643-4.55 4.832zM156.417 14.41h-8.737c.237 2.038 1.481 3.11 3.297 3.11a4.368 4.368 0 003.228-1.24l1.975 1.92a7.731 7.731 0 01-5.494 2.093c-3.949 0-6.51-2.562-6.51-6.668 0-4.107 2.927-6.673 6.461-6.673 3.736 0 5.804 2.305 5.804 6.07l-.024 1.388zm-3.505-2.3c0-1.417-.785-2.542-2.408-2.542-1.481 0-2.404.918-2.745 2.542h5.153zM1.059.952v11.322a5.997 5.997 0 013.405 0V4.377h12.024v12.004H8.591a6.006 6.006 0 010 3.406h11.303V.952H1.059zM2.714 21.256a2.655 2.655 0 100-5.311 2.655 2.655 0 000 5.311z"></path></svg>