<svg width="136" height="33" viewBox="0 0 136 33" fill="none" xmlns="http://www.w3.org/2000/svg"><path fill-rule="evenodd" clip-rule="evenodd" d="M7.744 7.1H0v18.555h8.188c4.67 0 7.155-1.842 7.155-5.315 0-1.882-1.255-3.459-3.309-4.162 1.714-.636 2.76-2.133 2.76-3.936 0-3.353-2.459-5.143-7.05-5.143zm-3.846 3.392h3.74c1.714 0 3.088.385 3.088 2.015 0 1.71-1.347 2.068-3.087 2.068h-3.74v-4.083zm0 7.582h4.107c2.028 0 3.283.437 3.283 2.08 0 1.658-1.255 2.108-3.283 2.108H3.898v-4.188zm23.224-11.32c-5.73 0-9.758 4.07-9.758 9.623 0 5.554 4.029 9.623 9.758 9.623 5.716 0 9.758-4.07 9.758-9.623 0-5.553-4.042-9.622-9.758-9.622zm0 3.553c3.31 0 5.677 2.465 5.677 6.07 0 3.606-2.368 6.07-5.677 6.07-3.296 0-5.69-2.464-5.69-6.07 0-3.605 2.394-6.07 5.69-6.07zm29.215 15.348V7.1h-3.924v11.81L43.44 7.099h-3.833v18.556h3.925V13.753l9.012 11.902h3.794zm12.525-18.9c-5.73 0-9.758 4.069-9.758 9.622 0 5.554 4.029 9.623 9.758 9.623 5.716 0 9.758-4.07 9.758-9.623 0-5.553-4.042-9.622-9.758-9.622zm0 3.552c3.31 0 5.677 2.465 5.677 6.07 0 3.606-2.368 6.07-5.677 6.07-3.296 0-5.69-2.464-5.69-6.07 0-3.605 2.394-6.07 5.69-6.07zm20.163-3.208h-7.743v18.556h8.188c4.67 0 7.155-1.842 7.155-5.315 0-1.882-1.256-3.46-3.31-4.162 1.714-.636 2.76-2.134 2.76-3.936 0-3.354-2.458-5.143-7.05-5.143zm-3.845 3.393h3.74c1.714 0 3.088.385 3.088 2.015 0 1.71-1.347 2.067-3.087 2.067H85.18v-4.082zm0 7.582h4.107c2.027 0 3.283.437 3.283 2.08 0 1.657-1.255 2.108-3.283 2.108H85.18v-4.188zm23.224-11.32c-5.729 0-9.758 4.07-9.758 9.623 0 5.554 4.029 9.623 9.758 9.623 5.716 0 9.758-4.07 9.758-9.623 0-5.553-4.042-9.622-9.758-9.622zm0 3.553c3.309 0 5.677 2.465 5.677 6.07 0 3.606-2.368 6.07-5.677 6.07-3.296 0-5.69-2.464-5.69-6.07 0-3.605 2.394-6.07 5.69-6.07zm19.47 15.68c3.898 0 7.626-1.724 7.626-5.686 0-2.97-1.897-4.613-5.088-5.408l-2.198-.544c-3.008-.742-3.571-1.113-3.571-2.187 0-1.073 1.046-1.855 3.231-1.855 1.727 0 2.956.676 3.78 1.988l3.336-1.723c-.837-2.373-3.611-3.804-7.064-3.804-4.277 0-7.377 2.36-7.377 5.726 0 3.645 2.825 4.93 5.285 5.487l2.668.61c2.119.477 2.877.835 2.877 1.948 0 1.352-1.399 1.909-3.374 1.909-2.302 0-4.068-1.18-4.879-2.81l-3.31 1.988c1.439 3.008 4.435 4.36 8.058 4.36z"></path></svg>