<svg width="70" height="32" viewBox="0 0 70 32" fill="none" xmlns="http://www.w3.org/2000/svg"><path fill-rule="evenodd" clip-rule="evenodd" d="M0 2v1.916h13.625V2H0zm15.556 0v1.916h19.417S32.989 2 30.363 2H15.556zm23.226 0v1.916h11.747L49.83 2h-11.05zM58.95 2l-.697 1.916h11.64V2H58.95zM0 5.726V7.64h13.625V5.726H0zm15.556.002v1.913h21.67s-.253-1.474-.695-1.913H15.556zm23.226 0v1.913h13.034l-.645-1.913h-12.39zm18.774 0l-.645 1.913h12.982V5.728H57.556zM3.916 9.451v1.918h5.9V9.452h-5.9zm15.555 0v1.918h5.901V9.452h-5.9zm11.64 0v1.918h5.902s.374-1.013.374-1.918h-6.275zm11.586 0v1.918H53.16l-.697-1.918h-9.765zm13.574 0l-.7 1.918h10.513V9.452h-9.813zM3.916 13.18v1.915h5.9V13.18h-5.9zm15.555 0v1.915h15.072s1.261-.983 1.663-1.915H19.47zm23.226 0v1.915h5.901V14.03l.375 1.066h10.809l.402-1.066v1.066h5.9V13.18H55.007l-.587 1.622-.591-1.622H42.697zM3.916 16.905v1.916h5.9v-1.916h-5.9zm15.555 0v1.916h16.735c-.402-.93-1.663-1.916-1.663-1.916H19.471zm23.226 0v1.916h5.901v-1.916h-5.9zm6.973 0l.713 1.916h8.105l.678-1.916H49.67zm10.514 0v1.916h5.9v-1.916h-5.9zM3.916 20.631v1.915h5.9v-1.915h-5.9zm15.555 0v1.915h5.901v-1.915h-5.9zm11.64 0v1.915h6.276c0-.904-.374-1.915-.374-1.915h-5.901zm11.586 0v1.915h5.901v-1.915h-5.9zm8.313 0l.692 1.915h5.433l.697-1.915H51.01zm9.174 0v1.915h5.9v-1.915h-5.9zM.107 24.356v1.918h13.625v-1.918H.107zm15.449 0v1.918H36.53c.442-.439.695-1.918.695-1.918h-21.67zm23.332 0v1.918h9.71v-1.918h-9.71zm13.464 0l.711 1.918h2.765l.667-1.918h-4.143zm7.832 0v1.918H70v-1.918h-9.816zM.107 28.084V30h13.625v-1.916H.107zm15.449 0v1.913h14.807c2.626 0 4.61-1.913 4.61-1.913H15.556zm23.332 0V30h9.71v-1.916h-9.71zm14.812 0l.684 1.91.117.003.695-1.913H53.7zm6.483 0V30H70v-1.916h-9.816z"></path></svg>